<svg width="150" height="130" viewBox="0 0 150 130" fill="none"
    xmlns="http://www.w3.org/2000/svg">
    <path fill-rule="evenodd" clip-rule="evenodd" d="M136.19 100.75H91.4259C93.3552 111.478 99.7691 118.859 105.697 123.5H113.492C115.285 123.5 116.735 124.953 116.735 126.75C116.735 128.547 115.285 130 113.492 130H35.6689C33.8757 130 32.4263 128.547 32.4263 126.75C32.4263 124.953 33.8757 123.5 35.6689 123.5H43.4609C49.3852 118.859 55.8056 111.478 57.7317 100.75H12.9705C5.80754 100.75 0 94.9293 0 87.75V13C0 5.82075 5.80754 0 12.9705 0H136.19C143.353 0 149.161 5.82075 149.161 13V87.75C149.161 94.9293 143.353 100.75 136.19 100.75ZM53.1693 123.5H95.9882C90.8162 118.033 86.2117 110.578 84.772 100.75H64.3856C62.9459 110.578 58.3413 118.033 53.1693 123.5ZM142.676 13C142.676 9.412 139.77 6.5 136.19 6.5H12.9705C9.39065 6.5 6.48525 9.412 6.48525 13V74.75H142.676V13ZM142.676 81.25H6.48525V87.75C6.48525 91.338 9.39065 94.25 12.9705 94.25H58.3673H90.7935H136.19C139.77 94.25 142.676 91.338 142.676 87.75V81.25ZM74.5804 91C72.7872 91 71.3378 89.5472 71.3378 87.75C71.3378 85.9528 72.7872 84.5 74.5804 84.5C76.3736 84.5 77.823 85.9528 77.823 87.75C77.823 89.5472 76.3736 91 74.5804 91Z" fill="#34547A"/>
</svg>
