<svg width="141" height="104" viewBox="0 0 141 104" fill="none"
    xmlns="http://www.w3.org/2000/svg">
    <path d="M136.311 103.753H4.67979C2.25862 103.753 0.2959 101.972 0.2959 99.7751V4.22507C0.2959 2.02807 2.25862 0.24707 4.67979 0.24707H136.311C138.732 0.24707 140.695 2.02807 140.695 4.22507V99.7621C140.695 101.972 138.732 103.753 136.311 103.753ZM131.927 95.7841V36.7251H9.07801V95.7841H131.927ZM9.06369 8.21607V28.7691H131.927V8.21607H9.06369ZM121.756 18.4991C121.756 16.4841 119.965 14.8591 117.744 14.8591C115.524 14.8591 113.733 16.4841 113.733 18.4991C113.733 20.5141 115.524 22.1391 117.744 22.1391C119.95 22.1391 121.756 20.5141 121.756 18.4991ZM106.125 18.4991C106.125 16.4841 104.335 14.8591 102.114 14.8591C99.8934 14.8591 98.1025 16.4841 98.1025 18.4991C98.1025 20.5141 99.8934 22.1391 102.114 22.1391C104.335 22.1391 106.125 20.5141 106.125 18.4991ZM90.5095 18.4991C90.5095 16.4841 88.7187 14.8591 86.4981 14.8591C84.2775 14.8591 82.4867 16.4841 82.4867 18.4991C82.4867 20.5141 84.2775 22.1391 86.4981 22.1391C88.7044 22.1391 90.5095 20.5141 90.5095 18.4991Z" fill="#34547A"/>
    <path d="M124.979 45.1489H55.9255V53.105H124.979V45.1489V45.1489Z" fill="#34547A"/>
    <path d="M124.979 60.2681H55.9255V68.2241H124.979V60.2681V60.2681Z" fill="#34547A"/>
    <path d="M124.979 74.126H55.9255V82.082H124.979V74.126V74.126Z" fill="#34547A"/>
    <path d="M14.8802 83.1871H50.0516V44.8501H14.8802V83.1871ZM44.6362 78.2861H20.2956V49.7641H44.6362V78.2861Z" fill="#34547A"/>
</svg>
