<svg width="74" height="131" viewBox="0 0 74 131" fill="none" xmlns="http://www.w3.org/2000/svg">
<path d="M63.2193 130.001H10.4924C7.83786 130.03 5.27984 129.005 3.3791 127.149C1.47836 125.292 0.389981 122.757 0.35257 120.098V9.90298C0.389981 7.24426 1.47836 4.70888 3.3791 2.85265C5.27984 0.996413 7.83786 -0.0292048 10.4924 0.000633288H63.2193C65.8738 -0.0292048 68.4318 0.996413 70.3325 2.85265C72.2332 4.70888 73.3216 7.24426 73.359 9.90298V120.098C73.3216 122.757 72.2332 125.292 70.3325 127.149C68.4318 129.005 65.8738 130.03 63.2193 130.001V130.001ZM10.4924 4.06313C8.91348 4.03315 7.387 4.63073 6.24687 5.72513C5.10673 6.81954 4.44574 8.32169 4.40848 9.90298V120.098C4.44574 121.68 5.10673 123.182 6.24687 124.276C7.387 125.371 8.91348 125.968 10.4924 125.938H63.2193C64.7981 125.968 66.3246 125.371 67.4647 124.276C68.6049 123.182 69.2659 121.68 69.3031 120.098V9.90298C69.2659 8.32169 68.6049 6.81954 67.4647 5.72513C66.3246 4.63073 64.7981 4.03315 63.2193 4.06313H10.4924Z" fill="#34547A"/>
<path d="M48.0602 12.1879H25.6513C22.8831 12.1879 20.6321 9.57773 20.6321 6.37851V2.5293H24.688V6.37851C24.688 7.39414 25.266 8.12539 25.6513 8.12539H48.0602C48.4456 8.12539 49.0235 7.42461 49.0235 6.37851V3.15898H53.0794V6.37851C53.0794 9.57773 50.8284 12.1879 48.0602 12.1879Z" fill="#34547A"/>
</svg>
