<svg width="108" height="130" viewBox="0 0 108 130" fill="none"
    xmlns="http://www.w3.org/2000/svg">
    <path d="M96.34 118.181H11.1685V11.8808H96.3381L96.34 118.181ZM50.3823 124.244C50.3823 122.498 51.8902 121.085 53.7518 121.085C55.6154 121.085 57.1243 122.499 57.1243 124.244C57.1243 125.997 55.6164 127.412 53.7518 127.412C51.8921 127.412 50.3823 125.995 50.3823 124.244ZM107.348 4.99062H107.342C107.342 4.94751 107.348 4.90715 107.348 4.86404C107.348 2.17749 105.028 0 102.164 0C102.118 0 102.074 0.0036689 102.028 0.00550334V0H5.47996V0.00550334C5.435 0.0036689 5.39103 0 5.34412 0C2.4808 0 0.160828 2.17749 0.160828 4.86496C0.160828 4.90807 0.166691 4.94842 0.167668 4.99153H0.160828V124.71H0.299596C0.298619 124.757 0.289824 124.798 0.289824 124.842C0.289824 127.523 2.60491 129.695 5.46334 129.695C5.5083 129.695 5.55325 129.69 5.5982 129.688V129.695H101.915V129.688C101.961 129.69 102.004 129.695 102.052 129.695C104.908 129.695 107.226 127.523 107.226 124.842C107.226 124.798 107.218 124.757 107.215 124.71H107.353L107.348 4.99062Z" fill="#34547A"/>
</svg>
