<svg width="151" height="126" viewBox="0 0 151 126" fill="none"
	xmlns="http://www.w3.org/2000/svg">
	<path d="M101.06 108.939C100.283 108.511 99.6058 107.936 99.0674 107.239C98.8188 106.918 98.6087 106.578 98.4347 106.227H10.1034V27.2964H130.001V78.8353C132.56 79.0449 134.708 80.5689 135.609 82.6559C136.408 82.2592 137.298 82.014 138.233 81.9392C138.866 81.8893 139.494 81.925 140.104 82.0341V7.63312C140.104 3.4242 136.327 0 131.685 0H8.41935C3.77706 0 0 3.4242 0 7.63312V107.754C0 111.963 3.77706 115.387 8.41935 115.387H100.293C99.5761 114.071 99.4061 112.585 99.828 111.155C100.071 110.333 100.492 109.583 101.06 108.939ZM120.755 12.8175C120.755 11.261 122.147 9.99894 123.864 9.99894H126.972C128.689 9.99894 130.081 11.2607 130.081 12.8175V16.0118C130.081 17.5683 128.689 18.83 126.972 18.83H123.864C122.146 18.83 120.755 17.5683 120.755 16.0118V12.8175ZM106.299 12.8175C106.299 11.261 107.691 9.99894 109.408 9.99894H112.517C114.234 9.99894 115.626 11.2607 115.626 12.8175V16.0118C115.626 17.5683 114.234 18.83 112.517 18.83H109.408C107.691 18.83 106.299 17.5683 106.299 16.0118V12.8175ZM91.8434 12.8175C91.8434 11.261 93.2355 9.99894 94.952 9.99894H98.0607C99.7779 9.99894 101.17 11.2607 101.17 12.8175V16.0118C101.17 17.5683 99.7779 18.83 98.0607 18.83H94.952C93.2355 18.83 91.8434 17.5683 91.8434 16.0118V12.8175Z" fill="#34547A"/>
	<path d="M149.995 103.564L149.061 98.7611C148.934 98.1143 148.255 97.6823 147.54 97.7963L142.829 98.549C142.264 97.3458 141.541 96.2188 140.684 95.1873L143.761 91.8618C143.985 91.6209 144.094 91.3084 144.064 90.9939C144.033 90.6794 143.866 90.3892 143.599 90.1862L139.479 87.0512C139.213 86.8484 138.867 86.75 138.521 86.7775C138.174 86.805 137.854 86.9563 137.63 87.1979L134.556 90.5207C133.294 89.9378 131.944 89.4883 130.529 89.1916V84.8544C130.529 84.1976 129.942 83.6646 129.217 83.6646H123.837C123.113 83.6646 122.525 84.1976 122.525 84.8544V89.1916C121.11 89.4879 119.761 89.9378 118.499 90.5207L115.423 87.1982C114.958 86.6949 114.13 86.6295 113.575 87.0515L109.454 90.1862C109.188 90.3892 109.021 90.6794 108.99 90.9939C108.96 91.3084 109.069 91.6212 109.292 91.8628L112.37 95.1876C111.514 96.2188 110.79 97.3465 110.225 98.5493L105.513 97.7963C104.801 97.6826 104.12 98.1143 103.993 98.7611L103.06 103.564C102.999 103.875 103.077 104.194 103.276 104.453C103.477 104.711 103.78 104.887 104.123 104.942L108.838 105.695C108.915 107.02 109.169 108.301 109.578 109.521L105.434 111.689C105.133 111.846 104.913 112.106 104.823 112.411C104.733 112.716 104.78 113.04 104.954 113.314L107.644 117.537C107.817 117.81 108.104 118.01 108.44 118.091C108.552 118.118 108.666 118.132 108.78 118.132C109.008 118.132 109.234 118.078 109.435 117.972L113.583 115.801C114.558 116.749 115.659 117.588 116.862 118.298L115.225 122.377C115.106 122.673 115.121 123 115.268 123.286C115.416 123.572 115.682 123.793 116.009 123.901L121.063 125.568C121.208 125.616 121.36 125.641 121.512 125.641C121.701 125.641 121.892 125.604 122.067 125.529C122.382 125.396 122.626 125.155 122.745 124.858L124.382 120.78C125.084 120.857 125.798 120.896 126.523 120.896C127.248 120.896 127.962 120.856 128.664 120.78L130.302 124.858C130.421 125.155 130.665 125.396 130.98 125.529C131.155 125.603 131.344 125.641 131.535 125.641C131.686 125.641 131.839 125.617 131.984 125.568L137.038 123.901C137.365 123.793 137.631 123.572 137.778 123.286C137.925 123 137.941 122.673 137.822 122.377L136.184 118.299C137.386 117.589 138.487 116.749 139.464 115.802L143.611 117.973C143.812 118.078 144.038 118.132 144.267 118.132C144.38 118.132 144.495 118.118 144.606 118.092C144.943 118.01 145.229 117.81 145.403 117.538L148.092 113.314C148.266 113.041 148.314 112.716 148.224 112.411C148.133 112.107 147.913 111.847 147.612 111.689L143.469 109.521C143.878 108.301 144.132 107.02 144.209 105.696L148.923 104.942C149.266 104.888 149.571 104.712 149.77 104.453C149.977 104.194 150.055 103.875 149.995 103.564ZM126.527 111.196C122.542 111.196 119.311 108.267 119.311 104.654C119.311 101.041 122.543 98.1117 126.527 98.1117C130.513 98.1117 133.744 101.041 133.744 104.654C133.744 108.267 130.513 111.196 126.527 111.196Z" fill="#34547A"/>
	<path d="M58.8351 71.0495C58.8351 69.5105 57.8402 68.0968 56.3001 67.4484L42.2053 61.5114L56.3005 55.5737C57.8402 54.9247 58.8351 53.5113 58.8351 51.973V51.8697C58.8351 50.5062 58.0781 49.2545 56.8113 48.5229C56.1104 48.1171 55.2941 47.9023 54.4514 47.9023C53.8162 47.9023 53.1786 48.029 52.6081 48.2693L30.0743 57.7692C28.535 58.4182 27.5408 59.8315 27.5408 61.3695V61.6536C27.5408 63.1896 28.5346 64.602 30.0746 65.2543L52.6106 74.7551C53.1932 74.9996 53.8137 75.1237 54.4546 75.1237C55.2898 75.1237 56.1036 74.9086 56.8113 74.5006C58.0788 73.766 58.8354 72.5153 58.8354 71.1534L58.8351 71.0495Z" fill="#34547A"/>
	<path d="M81.0684 38.2223C80.2464 37.2021 78.9242 36.5933 77.5314 36.5933H77.4192C75.5066 36.5933 73.8297 37.7025 73.247 39.3513L58.4003 81.0557C57.9777 82.2599 58.2156 83.5861 59.0365 84.6059C59.8585 85.6254 61.1807 86.2346 62.5735 86.2346H62.6861C64.598 86.2346 66.2738 85.1251 66.8557 83.4766L81.7007 41.7754C82.1272 40.5722 81.8907 39.2441 81.0684 38.2223Z" fill="#34547A"/>
	<path d="M110.029 57.769L87.4951 48.2691C86.9264 48.0295 86.2898 47.9028 85.6546 47.9028C84.8122 47.9028 83.9956 48.1169 83.295 48.5221C82.0261 49.255 81.2692 50.5064 81.2692 51.8698V51.9731C81.2692 53.5102 82.2634 54.9239 83.8045 55.5755L97.8989 61.5119L83.8041 67.4486C82.2641 68.097 81.2692 69.5106 81.2692 71.0496V71.1536C81.2692 72.5154 82.0261 73.7659 83.2943 74.501C83.9995 74.9085 84.814 75.1238 85.6503 75.1238C86.2905 75.1238 86.9103 74.9998 87.4969 74.7543L110.032 65.2535C111.571 64.6028 112.564 63.1901 112.564 61.654V61.37C112.563 59.8317 111.569 58.4183 110.029 57.769Z" fill="#34547A"/>
</svg>
